<?xml version="1.0" standalone="no"?>
<!DOCTYPE svg PUBLIC "-//W3C//DTD SVG 20010904//EN"
 "http://www.w3.org/TR/2001/REC-SVG-20010904/DTD/svg10.dtd">
<svg version="1.0" xmlns="http://www.w3.org/2000/svg"
 width="352.000000pt" height="352.000000pt" viewBox="0 0 352.000000 352.000000"
 preserveAspectRatio="xMidYMid meet">
<metadata>
Created by potrace 1.14, written by Peter Selinger 2001-2017
</metadata>
<g transform="translate(0.000000,352.000000) scale(0.100000,-0.100000)"
fill="#000000" stroke="none">
<path d="M1975 3245 c-89 -28 -170 -76 -268 -160 -445 -380 -701 -850 -813
-1493 -17 -100 -38 -144 -96 -198 -229 -216 -467 -274 -696 -169 -55 25 -56
25 -37 3 40 -48 122 -118 165 -142 183 -99 388 -67 603 96 55 40 71 48 78 37
5 -8 9 -20 9 -27 0 -7 20 -32 44 -57 50 -49 103 -69 198 -74 l27 -1 -56 -82
c-159 -234 -214 -509 -127 -641 53 -80 153 -96 265 -43 128 62 240 166 469
441 374 449 556 621 711 673 86 29 140 14 178 -49 l18 -30 43 48 c76 86 101
174 66 241 -46 89 -173 79 -352 -29 -130 -77 -248 -188 -569 -534 -342 -368
-362 -388 -451 -431 -79 -38 -139 -44 -180 -18 -33 22 -42 42 -50 101 -10 84
22 179 101 301 33 51 48 65 85 78 206 73 330 172 573 454 21 25 62 72 90 105
89 103 261 268 346 332 152 115 249 144 319 94 39 -27 49 -61 34 -115 -6 -23
-9 -43 -6 -45 2 -2 29 18 61 44 164 137 235 253 185 303 -25 25 -103 42 -195
42 -241 -1 -466 -143 -727 -460 -164 -199 -431 -434 -570 -502 -50 -25 -70
-23 -71 7 -2 37 -3 43 -11 51 -5 4 -8 -4 -8 -19 0 -40 -21 -77 -44 -78 -100
-7 -199 40 -253 119 -26 40 -23 55 42 182 40 76 162 262 184 280 3 3 26 28 50
55 59 66 76 75 119 63 191 -53 665 407 790 767 64 182 42 355 -55 447 -58 55
-118 64 -218 33z m21 -220 c40 -26 65 -94 71 -193 7 -108 -7 -180 -53 -272
-43 -84 -145 -193 -225 -238 -64 -36 -91 -42 -66 -14 35 38 67 126 67 184 0
46 -5 62 -26 87 -23 28 -31 31 -84 31 -122 0 -304 -130 -370 -266 -36 -72 -35
-161 3 -234 l28 -53 -44 -46 c-64 -68 -125 -143 -206 -258 -40 -57 -76 -103
-81 -103 -4 0 -6 10 -4 23 46 328 191 676 403 967 125 173 255 307 341 354 98
53 194 65 246 31z m-331 -615 c13 -14 14 -23 6 -38 -15 -28 -103 -82 -135 -82
-30 0 -86 26 -86 39 0 5 -3 16 -6 24 -8 21 58 69 104 76 54 9 98 2 117 -19z"/>
<path d="M2644 3002 c-99 -120 -171 -220 -185 -260 -19 -55 18 -90 115 -112
63 -14 209 -24 239 -16 18 4 41 33 82 103 32 54 71 117 87 140 31 46 25 55
-32 42 -19 -5 -72 -11 -118 -15 -71 -6 -85 -4 -102 11 -23 21 -26 63 -10 145
6 29 9 54 7 56 -1 1 -39 -41 -83 -94z"/>
<path d="M3154 2540 l-31 -99 35 -48 c44 -62 115 -211 135 -288 56 -207 59
-464 8 -700 -16 -77 -41 -176 -55 -220 -14 -43 -23 -81 -21 -83 8 -8 60 86 96
173 87 207 133 420 133 605 0 162 -6 211 -51 360 -14 47 -43 121 -65 165 -42
84 -136 235 -147 235 -3 0 -20 -45 -37 -100z"/>
<path d="M2531 1169 c-34 -50 -61 -92 -59 -94 33 -30 160 -125 167 -125 5 0
16 10 24 23 9 12 43 51 76 87 33 36 61 67 61 70 0 3 -32 20 -70 38 -38 19 -83
47 -99 63 -17 16 -32 29 -34 29 -2 0 -31 -41 -66 -91z"/>
<path d="M1317 967 c-32 -45 -57 -85 -57 -89 0 -3 32 -31 71 -63 66 -54 71
-56 84 -39 7 11 36 51 64 91 l51 72 -33 22 c-17 12 -53 37 -78 55 l-46 33 -56
-82z"/>
</g>
</svg>
