<?xml version="1.0" standalone="no"?>
<!DOCTYPE svg PUBLIC "-//W3C//DTD SVG 20010904//EN"
 "http://www.w3.org/TR/2001/REC-SVG-20010904/DTD/svg10.dtd">
<svg version="1.0" xmlns="http://www.w3.org/2000/svg"
 width="260.000000pt" height="260.000000pt" viewBox="0 0 260.000000 260.000000"
 preserveAspectRatio="xMidYMid meet">
<metadata>
Created by potrace 1.14, written by Peter Selinger 2001-2017
</metadata>
<g transform="translate(0.000000,260.000000) scale(0.100000,-0.100000)"
fill="#000000" stroke="none">
<path d="M1120 2589 c-70 -12 -169 -36 -223 -55 -23 -9 -49 -17 -58 -19 -28
-6 -209 -99 -230 -118 -10 -10 -19 -15 -19 -12 0 4 -13 -4 -29 -17 -16 -12
-44 -34 -63 -48 -45 -34 -164 -154 -213 -215 -64 -79 -185 -285 -167 -285 4 0
1 -4 -6 -9 -7 -4 -14 -18 -15 -29 -1 -12 -4 -22 -7 -22 -4 0 -7 -6 -8 -12 -1
-7 -13 -53 -27 -103 -38 -134 -47 -205 -47 -350 1 -117 11 -196 39 -310 8 -33
17 -68 19 -79 2 -10 8 -24 14 -32 7 -7 9 -17 6 -23 -3 -5 -2 -11 3 -13 5 -1
11 -12 13 -23 1 -11 5 -22 8 -25 3 -3 13 -23 23 -45 88 -192 252 -382 452
-523 57 -39 242 -132 265 -132 9 0 20 -3 24 -7 4 -5 11 -8 14 -9 4 0 14 -3 22
-7 31 -13 127 -35 180 -42 19 -3 48 -8 63 -11 39 -8 243 -7 297 1 44 7 79 12
130 19 14 1 35 8 46 14 12 6 24 9 27 5 4 -3 13 0 22 7 8 7 15 9 15 5 0 -4 7
-2 15 5 8 6 18 9 23 6 6 -3 15 1 22 9 7 8 15 13 19 10 11 -6 192 88 262 137
34 24 71 50 83 58 11 8 38 32 59 52 21 21 42 38 47 38 6 0 10 4 10 9 0 4 21
30 46 57 25 27 66 81 92 119 26 39 52 73 57 77 6 4 6 8 2 8 -5 0 0 12 11 28
42 61 116 252 128 332 2 8 5 26 9 40 26 99 26 427 1 501 -3 8 -8 31 -11 52 -3
21 -9 46 -14 55 -5 9 -9 20 -10 25 -1 4 -1 8 -2 10 0 1 -2 13 -5 26 -2 14 -9
30 -15 38 -6 7 -9 13 -5 13 8 0 -117 243 -134 260 -3 3 -25 32 -50 65 -61 81
-180 197 -259 253 -36 26 -67 50 -69 54 -2 5 -8 8 -14 8 -6 0 -33 13 -59 30
-27 16 -49 27 -49 24 0 -4 -7 0 -16 7 -18 15 -51 28 -164 65 -67 23 -96 30
-190 49 -47 10 -335 12 -390 4z"/>
</g>
</svg>
